<?xml version="1.0" encoding="UTF-8"?>
<!DOCTYPE svg PUBLIC "-//W3C//DTD SVG 1.1//EN" "http://www.w3.org/Graphics/SVG/1.1/DTD/svg11.dtd">
<!-- Creator: CorelDRAW -->
<svg xmlns="http://www.w3.org/2000/svg" xml:space="preserve" width="113.117mm" height="113.015mm" version="1.1" style="shape-rendering:geometricPrecision; text-rendering:geometricPrecision; image-rendering:optimizeQuality; fill-rule:evenodd; clip-rule:evenodd"
viewBox="0 0 3924.71 3921.19"
 xmlns:xlink="http://www.w3.org/1999/xlink"
 xmlns:xodm="http://www.corel.com/coreldraw/odm/2003">
 <defs>
  <style type="text/css">
   <![CDATA[
    .fil4 {fill:#FAF2EA}
    .fil2 {fill:#FEFDF7}
    .fil0 {fill:#FF5000}
    .fil1 {fill:#FFFEFF}
    .fil3 {fill:#FFFFFD}
   ]]>
  </style>
 </defs>
 <g id="Layer_x0020_1">
  <metadata id="CorelCorpID_0Corel-Layer"/>
  <g id="_2053779701536">
   <path class="fil0" d="M1755.83 2577.7c82.66,75.71 168.1,104.33 185.1,277.19 -92.03,-52 -196.44,-112.35 -185.1,-277.19zm188.11 83.12c-123.99,-57.86 -270.67,-175.6 -115.49,-310.73 -88.61,-51.92 -68,-47.62 -82.18,-167.06 60.93,28.37 82.98,33.68 130.12,90.25 41.73,50.08 43.79,68.64 66.05,149.26l-115.88 42.38c103.7,60.62 97.34,42.98 117.38,195.89zm-197.52 -673.13c115.05,61.61 166.94,103.98 196.81,278.67 -109.51,-75.92 -178.58,-114.4 -196.81,-278.67zm3.2 -195.33c89.54,58.6 180.2,114.15 188.69,277.57 -91,-58.93 -177.97,-113.73 -188.69,-277.57zm4.34 -196.91c86.67,72.04 168.52,113.58 188.13,277.22 -97.21,-54.35 -190.54,-109.05 -188.13,-277.22zm59.9 -182.64c44.58,179.71 95.41,6.73 129.22,265.44 -120.91,-57.67 -156.25,-90.06 -195.05,-236.43 41.64,-41.55 -58.24,-53.17 65.83,-29.01zm173.54 -55.81c93.37,-81.38 57.42,-89.38 188.28,-150.67 -33.11,274.61 -157.23,119.91 -149.1,311.78 62.76,-93.3 81.66,-86.97 149.83,-114.87 -16.24,114.01 -5.77,118.74 -74.92,182.8 65.84,50.64 46.86,-37.53 69.41,40.93 24.9,86.66 -124.38,190.69 -157.78,287.88 42.34,-25.69 22.64,-13.01 58.98,-40.82l104.5 -80.22c-31.08,244.85 -120.7,128.46 -161.24,316.38 69.11,-46 81.89,-72.65 156.35,-115.7 -19.56,236.98 -131.05,132.97 -151.64,310.4l155.61 -115.91c-33.08,269.98 -154.92,123.22 -149.25,309.27 18.76,-26.02 22.99,-38.8 57.09,-64.42 76.04,-57.15 7.14,-14.42 92.9,-49.87 -56.33,398.01 65.57,205.55 -115.03,428.12 -82.41,101.55 -39.37,187.31 -71.09,121.82 -2.27,-4.69 -7.34,16.76 -12.52,24.42l9.63 -1601.32zm-56.59 -9.39l12.43 133.97c-73.74,-32.11 -22.66,-9.48 -73.79,-36.57 -13.51,-7.15 -23.78,-15.69 -55.58,-32.2 -37.38,-82.16 -52.83,-93.67 -66.84,-210.72 81.8,38.25 47.13,12.05 114.75,77.85l69.03 67.68zm56.59 9.39l-56.59 -9.39c-8.28,-145.7 -54.74,-179.3 27.1,-315.81 41.24,56.41 -0.24,-79.35 43.81,77.23 23.07,81.98 -5.56,172.06 -14.33,247.97zm1280.26 1382.82c-288.77,122.97 -916.42,-168.03 -932.52,-750.2 -13.6,-491.83 427.42,-902.28 942.32,-795.87 -319.86,135.66 -587.21,310.24 -592.41,766.92 -6.48,568.29 445.88,690.3 582.62,779.15zm-2625.2 -1543.97c811.7,-198.34 1261.53,911.5 660.09,1379.2 -125.07,97.25 -438.43,255.57 -651.7,164.77 105.99,-70.67 583.22,-187.69 585.77,-778.67 1.78,-411.21 -276.93,-654.81 -594.16,-765.3zm3267.06 967.08c142.83,-1134.36 -743.24,-2039.02 -1735.2,-2149.97 -1156.17,-129.32 -2054.14,726.84 -2162.51,1741.65 -122.61,1148.14 727.16,2042.43 1727.7,2153.32 1176.74,130.42 2041.08,-721.12 2170,-1745z"/>
   <path class="fil1" d="M642.46 1195.87c317.23,110.49 595.95,354.08 594.16,765.3 -2.55,590.99 -479.78,708 -585.77,778.67 213.27,90.8 526.63,-67.52 651.7,-164.77 601.44,-467.7 151.61,-1577.54 -660.09,-1379.2z"/>
   <path class="fil1" d="M3267.66 2739.84c-136.74,-88.85 -589.09,-210.86 -582.62,-779.15 5.2,-456.68 272.56,-631.25 592.41,-766.92 -514.89,-106.41 -955.92,304.03 -942.32,795.87 16.1,582.16 643.75,873.17 932.52,750.2z"/>
   <path class="fil2" d="M1987.4 1357.02l-9.63 1601.32c5.18,-7.66 10.25,-29.11 12.52,-24.42 31.72,65.49 -11.32,-20.27 71.09,-121.82 180.6,-222.57 58.71,-30.11 115.03,-428.12 -85.75,35.45 -16.86,-7.28 -92.9,49.87 -34.1,25.63 -38.33,38.41 -57.09,64.42 -5.67,-186.05 116.17,-39.29 149.25,-309.27l-155.61 115.91c20.59,-177.43 132.08,-73.42 151.64,-310.4 -74.46,43.06 -87.23,69.7 -156.35,115.7 40.54,-187.92 130.16,-71.53 161.24,-316.38l-104.5 80.22c-36.34,27.8 -16.64,15.13 -58.98,40.82 33.4,-97.19 182.69,-201.22 157.78,-287.88 -22.55,-78.46 -3.57,9.7 -69.41,-40.93 69.15,-64.06 58.67,-68.78 74.92,-182.8 -68.17,27.9 -87.07,21.57 -149.83,114.87 -8.14,-191.87 115.98,-37.17 149.1,-311.78 -130.86,61.29 -94.9,69.29 -188.28,150.67z"/>
   <path class="fil2" d="M1828.45 2350.1c-155.19,135.13 -8.5,252.87 115.49,310.73 -20.04,-152.91 -13.68,-135.27 -117.38,-195.89l115.88 -42.38c-22.26,-80.63 -24.33,-99.18 -66.05,-149.26 -47.14,-56.57 -69.19,-61.88 -130.12,-90.25 14.18,119.44 -6.43,115.14 82.18,167.06z"/>
   <path class="fil3" d="M1813.86 1412.82c31.8,16.52 42.07,25.05 55.58,32.2 51.13,27.09 0.06,4.47 73.79,36.57l-12.43 -133.97 -69.03 -67.68c-67.62,-65.8 -32.95,-39.61 -114.75,-77.85 14.01,117.05 29.45,128.57 66.84,210.72z"/>
   <path class="fil4" d="M1930.81 1347.63l56.59 9.39c8.76,-75.9 37.39,-165.99 14.33,-247.97 -44.05,-156.59 -2.57,-20.82 -43.81,-77.23 -81.84,136.51 -35.38,170.12 -27.1,315.81z"/>
   <path class="fil3" d="M1813.86 1412.82c-124.07,-24.16 -24.19,-12.54 -65.83,29.01 38.8,146.37 74.14,178.76 195.05,236.43 -33.81,-258.71 -84.64,-85.73 -129.22,-265.44z"/>
   <path class="fil3" d="M1943.23 2266.36c-29.88,-174.69 -81.76,-217.06 -196.81,-278.67 18.23,164.27 87.3,202.75 196.81,278.67z"/>
   <path class="fil3" d="M1940.93 2854.89c-17,-172.86 -102.44,-201.48 -185.1,-277.19 -11.34,164.84 93.07,225.19 185.1,277.19z"/>
   <path class="fil2" d="M1942.09 1872.68c-19.61,-163.63 -101.46,-205.18 -188.13,-277.22 -2.41,168.17 90.92,222.86 188.13,277.22z"/>
   <path class="fil2" d="M1938.3 2069.93c-8.49,-163.42 -99.15,-218.96 -188.69,-277.57 10.72,163.83 97.68,218.64 188.69,277.57z"/>
  </g>
 </g>
</svg>
